{"title":"Xxx - State Of The Union 2005 Brrip 1080p Dual Audio [ Hin DD 5.","uid":9246906,"size":4433847319,"categoryP":"video","categoryS":"hd___movies","magnet":"?xt=urn:btih:e5a0b176492161814b7ae6dc7112252af8a4d995&amp;dn=Xxx+-+State+Of+The+Union+2005+Brrip+1080p+Dual+Audio+%5B+Hin+DD+5.&amp;tr=udp%3A%2F%2Ftracker.openbittorrent.com%3A80&amp;tr=udp%3A%2F%2Fopen.demonii.com%3A1337&amp;tr=udp%3A%2F%2Ftracker.coppersurfer.tk%3A6969&amp;tr=udp%3A%2F%2Fexodus.desync.com%3A6969","seeders":0,"leechers":3,"uploader":"tariq51","files":5,"time":1385391286,"description":"                                           [IMG]http://i.imgur.com/LhRnzSt.png[/IMG]\n\n\n\n[b][i][size=3][color=blue]RELEASE TITLE:[/color][/size][/i][/b]\n          ======================================\n[b][i][size=3][color=maroon]Xxx - State Of The Union 2005 Brrip 1080p Dual Audio [ Hin DD 5.1- Eng Dts] Tariq Qureshi.mkv[/color][/size][/i][/b]\n\n\n                     =================================================\n[b][i][size=2][color=fuchsia]THANKS TO \n   GPSOFT FOR ORG DD 5.1 HINDI AUDIO AND THANKS TO MOHSIN PATHAN FOR HELP [/color][/size][/i][/b]\n                            \n                                         \n========================================================================\n[IMG]http://i.imgur.com/lXGn765.jpg[/IMG]\n===========================================\n\n[b][i][size=3][color=red]General:[/color][/size][/i][/b]\n======================================\n[b][i][size=2][color=green]IMDB LINK                                :http://www.imdb.com/title/tt0329774/\nFormat                                   : Matroska\nFormat version                           : Version 4 / Version 2\nFile size                                : 4.03 GiB\nDuration                                 : 1h 36mn\nOverall bit rate                         : 5 957 Kbps\nEncoded date                             : UTC 2013-11-18 07:31:48\nMovie name                               : Xxx - State Of The Union 2005 Brrip 1080p Dual Audio [ Hin DD 5.1- Eng Dts] Tariq Qureshi.mkv[/color][/size][/i][/b]\n                                   \n=======================================================================================\n[b][i][size=3][color=red]VIDEO:[/color][/size][/i][/b]\n                            =======================\n\n[b][i][size=2][color=green]ID                                       : 1\nFormat                                   : AVC\nFormat/Info                              : Advanced Video Codec\nFormat profile                           : &lt;a class=&quot;__cf_email__&quot; href=&quot;/cdn-cgi/l/email-protection&quot; data-cfemail=&quot;a4e9c5cdcae4e8908a94&quot;&gt;[email&amp;#160;protected]&lt;/a&gt;&lt;script cf-hash='f9e31' type=&quot;text/javascript&quot;&gt;\n/* &lt;![CDATA[ */!function(){try{var t=&quot;currentScript&quot;in document?document.currentScript:function(){for(var t=document.getElementsByTagName(&quot;script&quot;),e=t.length;e--;)if(t[e].getAttribute(&quot;cf-hash&quot;))return t[e]}();if(t&amp;&amp;t.previousSibling){var e,r,n,i,c=t.previousSibling,a=c.getAttribute(&quot;data-cfemail&quot;);if(a){for(e=&quot;&quot;,r=parseInt(a.substr(0,2),16),n=2;a.length-n;n+=2)i=parseInt(a.substr(n,2),16)^r,e+=String.fromCharCode(i);e=document.createTextNode(e),c.parentNode.replaceChild(e,c)}}}catch(u){}}();/* ]]&gt; */&lt;/script&gt;\nFormat settings, CABAC                   : Yes\nFormat settings, ReFrames                : 4 frames\nCodec ID                                 : V_MPEG4/ISO/AVC\nDuration                                 : 1h 36mn\nBit rate                                 : 4 000 Kbps\nWidth                                    : 1 920 pixels\nHeight                                   : 800 pixels\nDisplay aspect ratio                     : 2.40:1\nFrame rate mode                          : Constant\nFrame rate                               : 25.000 fps\nLanguage                                 : English\nDefault                                  : Yes\nForced                                   : No[/color][/size][/i][/b]\n=====================================================================================\n[b][i][size=3][color=red]AUDIO:1[/color][/size][/i][/b]\n          ================\n[b][i][size=2][color=green]ID                                       : 2\nFormat                                   : DTS\nFormat/Info                              : Digital Theater Systems\nMode                                     : 16\nFormat settings, Endianness              : Big\nCodec ID                                 : A_DTS\nDuration                                 : 1h 36mn\nBit rate mode                            : Constant\nBit rate                                 : 1 510 Kbps\nChannel(s)                               : 6 channels\nChannel positions                        : Front: L C R, Side: L R, LFE\nSampling rate                            : 48.0 KHz\nBit depth                                : 24 bits\nCompression mode                         : Lossy\nStream size                              : 1.02 GiB (25%)\nTitle                                    : Dts Tariq Qureshi\nLanguage                                 : English\nDefault                                  : No[/color][/size][/i][/b]\n\n===================================================================================\n[b][i][size=3][color=red]AUDIO:2[/color][/size][/i][/b]\n            ================\n[b][i][size=2][color=green]ID                                       : 3\nFormat                                   : AC-3\nFormat/Info                              : Audio Coding 3\nMode extension                           : CM (complete main)\nFormat settings, Endianness              : Big\nCodec ID                                 : A_AC3\nDuration                                 : 1h 36mn\nBit rate mode                            : Constant\nBit rate                                 : 384 Kbps\nChannel(s)                               : 6 channels\nChannel positions                        : Front: L C R, Side: L R, LFE\nSampling rate                            : 48.0 KHz\nBit depth                                : 16 bits\nCompression mode                         : Lossy\nDelay relative to video                  : 2s 350ms\nStream size                              : 266 MiB (6%)\nTitle                                    : 5.1 DD Tariq Qureshi\nLanguage                                 : Hindi\nDefault                                  : Yes\nForced                                   : No[/color][/size][/i][/b]\n\n===================================================================================\n[b][i][size=3][color=red][IMG]http://i.imgur.com/Q3KFG70.gif[/IMG][/color][/size][/i][/b]\n            =========================\n[IMG]http://i.imgur.com/XczwMU0.png[/IMG]\n[IMG]http://i.imgur.com/lQ1gRbg.png[/IMG]\n[IMG]http://i.imgur.com/o97dv46.png[/IMG]\n[IMG]http://i.imgur.com/LD1cOxX.png[/IMG]\n[IMG]http://i.imgur.com/4rl35km.png[/IMG]\n[IMG]http://i.imgur.com/mSumP9i.png[/IMG]\n[IMG]http://i.imgur.com/4yPjQBI.png[/IMG]\n===================================================================================\n                                                [IMG]http://i.imgur.com/MO8y8TI.jpg[/IMG]\n===================================================================================\n\n[b][i][size=3][color=red]SEEDING FROM HIGH SPEED SEEDBOX[/color][/size][/i][/b]","torrent":{"xt":"urn:btih:e5a0b176492161814b7ae6dc7112252af8a4d995","amp;dn":"Xxx+-+State+Of+The+Union+2005+Brrip+1080p+Dual+Audio+%5B+Hin+DD+5.","amp;tr":["udp%3A%2F%2Ftracker.openbittorrent.com%3A80","udp%3A%2F%2Fopen.demonii.com%3A1337","udp%3A%2F%2Ftracker.coppersurfer.tk%3A6969","udp%3A%2F%2Fexodus.desync.com%3A6969"],"infoHash":"e5a0b176492161814b7ae6dc7112252af8a4d995","infoHashBuffer":{"type":"Buffer","data":[229,160,177,118,73,33,97,129,75,122,230,220,113,18,37,42,248,164,217,149]},"announce":[],"urlList":[]}}